<?xml version="1.0" standalone="no"?>
<!DOCTYPE svg PUBLIC "-//W3C//DTD SVG 20010904//EN"
 "http://www.w3.org/TR/2001/REC-SVG-20010904/DTD/svg10.dtd">
<svg version="1.0" xmlns="http://www.w3.org/2000/svg"
 width="1081.000000pt" height="1081.000000pt" viewBox="0 0 1081.000000 1081.000000"
 preserveAspectRatio="xMidYMid meet">
<metadata>
Created by potrace 1.11, written by Peter Selinger 2001-2013
</metadata>
<g transform="translate(0.000000,1081.000000) scale(0.100000,-0.100000)"
fill="#000000" stroke="none">
<path d="M8641 8116 c-56 -27 -68 -60 -66 -189 0 -60 -3 -111 -7 -113 -5 -3
-6 -9 -3 -14 4 -7 -45 -23 -115 -37 -42 -8 -55 -11 -55 -13 0 -1 -7 -3 -15 -5
-33 -6 -154 -46 -164 -53 -6 -5 -33 -17 -61 -27 -27 -10 -52 -21 -55 -24 -3
-4 -31 -20 -63 -36 -32 -17 -67 -38 -77 -47 -11 -10 -23 -18 -27 -18 -5 0 -20
-11 -35 -25 -15 -13 -32 -26 -38 -27 -16 -4 -145 -131 -143 -140 2 -4 -1 -7
-5 -5 -4 1 -19 -10 -33 -24 -42 -46 -69 -79 -69 -84 0 -3 -9 -14 -20 -25 -12
-12 -18 -25 -15 -30 4 -6 2 -10 -3 -10 -10 0 -72 -93 -72 -109 0 -6 -4 -11 -9
-11 -5 0 -12 -13 -16 -30 -4 -16 -10 -30 -15 -30 -5 0 -14 -17 -20 -37 -6 -21
-19 -53 -27 -72 -8 -18 -17 -41 -18 -50 -2 -9 -4 -17 -5 -18 -3 -3 -4 -8 -14
-48 -4 -16 -12 -41 -17 -55 -5 -14 -11 -42 -13 -62 -2 -21 -7 -41 -10 -46 -3
-5 -6 -28 -7 -51 -2 -23 -5 -44 -8 -46 -14 -8 -3 -328 14 -405 3 -14 8 -39 10
-55 3 -17 11 -52 19 -78 8 -26 11 -47 8 -47 -4 0 -2 -4 3 -8 6 -4 21 -41 35
-82 13 -41 30 -81 37 -88 7 -8 11 -18 7 -23 -3 -5 2 -12 10 -15 9 -3 13 -10
10 -15 -3 -5 0 -9 6 -9 6 0 9 -4 5 -9 -3 -5 2 -17 11 -25 8 -9 13 -16 10 -16
-5 0 6 -18 57 -93 6 -10 11 -23 9 -29 -1 -5 2 -7 8 -3 5 3 10 1 10 -5 0 -6 5
-16 10 -23 39 -46 50 -61 50 -69 0 -5 5 -6 10 -3 6 3 10 0 10 -8 0 -8 7 -17
15 -21 8 -3 15 -13 15 -21 0 -9 5 -13 10 -10 6 3 14 -4 19 -17 6 -13 10 -20
10 -15 1 4 20 -12 44 -35 55 -55 125 -111 149 -120 10 -4 18 -12 18 -18 0 -6
4 -9 9 -5 5 3 16 -4 24 -15 7 -11 17 -17 20 -13 4 3 7 0 7 -7 0 -7 3 -10 6 -7
4 4 21 -4 38 -16 17 -12 33 -22 36 -23 3 0 30 -12 60 -26 50 -23 118 -51 130
-54 3 0 12 -4 20 -7 53 -23 196 -53 300 -64 153 -15 352 -3 475 29 22 5 47 12
55 13 8 2 40 13 72 23 31 11 59 18 62 15 3 -4 6 -1 6 5 0 7 5 12 11 12 18 0
159 72 159 81 0 5 6 6 13 3 7 -2 26 7 43 21 16 14 37 28 47 31 9 3 17 10 17
15 0 6 5 7 10 4 6 -3 10 -1 10 6 0 7 3 10 6 6 3 -3 20 9 36 26 17 18 27 25 22
17 -4 -8 16 9 45 38 30 28 58 52 63 52 5 0 7 3 5 8 -3 4 1 13 9 20 8 7 14 10
14 6 0 -4 10 6 22 22 13 16 26 31 30 32 5 2 8 10 8 18 0 9 4 13 9 9 5 -3 12 4
16 15 4 11 11 18 16 14 5 -3 8 -2 7 3 -2 7 28 60 42 73 8 8 28 41 47 78 9 17
21 32 25 32 5 0 6 5 3 10 -3 6 -1 10 6 10 7 0 9 3 6 7 -4 3 0 14 9 24 8 9 16
26 17 38 1 11 4 21 8 21 6 0 19 27 24 50 1 3 9 23 19 45 9 21 18 46 19 55 2 8
6 21 10 28 5 6 6 12 2 12 -3 0 -1 9 5 21 7 11 13 33 15 47 3 15 7 38 10 52 20
94 26 151 26 280 1 97 -7 216 -16 260 -12 53 -17 76 -20 95 -2 11 -8 34 -13
52 -6 17 -8 34 -4 37 3 3 0 6 -7 6 -7 0 -10 4 -7 8 3 5 -1 20 -9 35 -8 15 -11
27 -8 27 3 0 1 6 -5 13 -6 6 -11 17 -12 22 -8 36 -77 182 -90 190 -6 4 -8 11
-5 16 4 5 1 9 -4 9 -6 0 -11 9 -11 21 0 11 -4 17 -10 14 -5 -3 -10 1 -10 9 0
9 -5 16 -11 16 -5 0 -8 4 -4 9 3 5 -5 17 -17 25 -12 9 -19 18 -16 22 4 3 -4
16 -17 29 -14 12 -23 24 -21 26 2 2 -43 50 -100 107 -57 57 -104 100 -104 96
0 -4 -12 5 -26 19 -14 14 -39 32 -54 39 -16 7 -27 15 -25 18 2 4 -11 13 -30
20 -19 8 -35 17 -35 20 0 6 -69 43 -83 44 -4 1 -11 7 -16 14 -5 8 -12 13 -17
13 -5 -1 -22 4 -39 10 -16 7 -33 11 -37 10 -5 0 -8 3 -8 7 0 8 -91 38 -99 33
-2 -1 -7 1 -10 6 -5 7 -84 30 -136 38 -5 1 -12 3 -15 4 -3 2 -25 5 -50 7 -25
3 -46 9 -48 14 -2 6 -10 10 -18 10 -16 0 -15 -4 -18 147 -2 84 -7 118 -19 137
-32 48 -165 66 -236 32z m215 -571 c43 -2 90 -7 104 -10 14 -4 39 -9 55 -11
17 -3 31 -10 33 -14 2 -5 9 -7 17 -4 7 3 23 0 35 -6 21 -11 54 -21 78 -22 6
-1 12 -5 12 -10 0 -4 8 -8 19 -8 10 0 24 -7 31 -15 6 -8 15 -14 18 -13 13 4
92 -38 86 -45 -4 -4 3 -7 15 -7 12 0 19 -4 16 -10 -3 -5 3 -10 14 -10 12 0 21
-4 21 -10 0 -5 6 -10 13 -10 7 0 20 -8 29 -17 27 -29 46 -43 59 -43 7 0 10 -3
6 -6 -7 -7 17 -34 30 -34 5 0 23 -16 40 -35 17 -19 33 -31 37 -28 3 4 6 0 6
-8 0 -8 8 -22 18 -31 9 -9 28 -31 42 -48 14 -17 33 -41 43 -51 10 -11 15 -25
11 -31 -4 -7 -3 -8 4 -4 7 4 14 -3 18 -18 3 -13 12 -27 21 -30 8 -3 11 -10 8
-16 -3 -5 -1 -10 5 -10 6 0 9 -4 6 -9 -3 -5 1 -14 9 -21 8 -7 15 -19 15 -27 0
-7 7 -25 16 -38 9 -14 12 -25 8 -25 -5 0 -3 -4 3 -8 7 -4 14 -17 16 -27 2 -11
7 -28 10 -37 21 -56 22 -59 31 -118 2 -14 5 -25 6 -25 8 0 24 -161 24 -240 0
-102 -10 -187 -29 -265 -12 -46 -16 -66 -18 -75 -2 -5 -5 -14 -8 -20 -7 -10
-31 -82 -35 -100 -5 -25 -32 -64 -39 -57 -5 4 -5 2 -1 -5 7 -13 -13 -63 -26
-63 -5 0 -7 -4 -4 -8 3 -5 -2 -18 -12 -28 -9 -10 -23 -31 -31 -46 -8 -16 -18
-28 -23 -28 -4 0 -8 -7 -8 -15 0 -8 -4 -15 -9 -15 -5 0 -13 -9 -16 -20 -3 -11
-14 -20 -23 -21 -10 0 -12 -3 -5 -5 8 -4 7 -11 -5 -23 -9 -10 -20 -16 -24 -14
-5 2 -8 -2 -8 -10 0 -8 -42 -57 -93 -109 -83 -82 -152 -146 -152 -139 0 2 -12
-3 -27 -10 -16 -7 -28 -16 -28 -22 0 -5 -7 -7 -15 -3 -8 3 -15 2 -15 -2 0 -8
-32 -23 -100 -47 -44 -16 -57 -20 -101 -30 -11 -2 -28 -6 -37 -9 -19 -5 -76
-14 -142 -22 -75 -10 -345 -4 -345 6 0 1 -12 3 -26 5 -14 2 -45 9 -70 16 -24
7 -48 11 -53 10 -9 -2 -33 7 -78 30 -10 5 -25 9 -33 9 -8 0 -15 5 -15 12 0 6
-3 9 -6 5 -4 -3 -38 11 -77 31 -91 48 -103 56 -125 75 -10 10 -24 17 -31 17
-7 0 -9 5 -6 10 3 6 0 10 -7 10 -7 0 -24 12 -37 25 -12 14 -27 23 -31 20 -5
-3 -11 4 -15 15 -3 11 -13 20 -21 20 -8 0 -12 5 -9 10 3 6 -1 10 -9 10 -8 0
-18 9 -21 20 -3 11 -13 20 -21 20 -8 0 -12 5 -9 10 3 6 -2 10 -11 10 -10 0
-15 3 -11 6 3 3 -4 17 -16 30 -35 37 -48 54 -42 54 3 0 -6 11 -20 25 -14 14
-25 30 -25 35 0 5 -6 15 -12 22 -16 17 -61 105 -58 114 1 4 -2 10 -7 13 -12 8
-65 152 -58 159 2 3 0 11 -6 19 -6 7 -8 13 -5 13 4 0 2 8 -3 18 -5 10 -13 41
-16 68 -4 27 -9 63 -11 79 -13 82 -6 300 13 380 2 11 7 36 10 55 3 19 10 41
15 48 6 6 8 12 4 12 -3 0 0 15 8 34 8 19 12 37 8 40 -3 3 0 6 7 6 7 0 10 4 6
9 -3 5 -1 12 5 16 5 3 10 15 10 25 0 10 6 25 13 32 7 7 14 15 15 18 4 20 18
49 34 73 11 15 17 27 14 27 -3 0 4 11 15 24 12 13 20 27 19 31 -1 4 8 15 19
24 12 10 21 23 21 29 0 6 10 18 23 27 12 8 22 19 22 23 0 4 3 6 7 5 5 -2 8 6
8 18 0 11 5 17 10 14 6 -3 10 2 10 11 0 10 3 14 7 11 3 -4 17 8 30 25 12 18
23 29 23 25 0 -6 27 16 101 84 15 15 31 24 34 21 3 -3 5 0 5 6 0 7 7 12 15 12
8 0 15 4 15 10 0 5 11 12 25 16 14 3 25 10 25 15 0 5 3 8 8 8 20 -3 32 2 26
13 -5 8 0 9 14 6 12 -4 20 -2 16 3 -5 8 9 13 29 10 4 0 7 3 7 9 0 5 16 12 35
16 19 3 35 11 35 17 0 6 3 8 6 5 3 -4 21 0 40 8 19 8 34 11 34 8 0 -4 6 -2 13
3 6 5 21 10 32 11 21 2 60 9 60 12 0 5 52 11 140 16 55 3 102 8 104 10 2 2 7
1 11 -1 4 -2 43 -7 86 -10z"/>
<path d="M8565 7465 c-38 -6 -71 -13 -72 -13 -4 -3 -6 -3 -33 -8 -14 -2 -47
-12 -75 -21 -27 -10 -53 -16 -57 -15 -5 1 -8 -3 -8 -10 0 -6 -3 -8 -7 -5 -3 4
-12 2 -20 -4 -7 -6 -13 -8 -13 -5 0 4 -7 0 -16 -8 -8 -9 -24 -16 -35 -16 -10
0 -19 -3 -19 -7 0 -5 -18 -17 -40 -27 -22 -11 -40 -23 -40 -28 0 -5 -4 -6 -10
-3 -5 3 -10 1 -10 -6 0 -7 -2 -10 -5 -7 -6 6 -45 -25 -97 -74 -15 -14 -28 -23
-28 -20 0 4 -5 -1 -11 -11 -6 -9 -14 -15 -20 -12 -8 6 -13 -8 -10 -27 0 -5 -6
-8 -14 -8 -8 0 -15 -3 -15 -7 0 -5 -16 -26 -35 -48 -67 -76 -75 -87 -75 -100
0 -7 -7 -16 -16 -19 -8 -3 -12 -10 -9 -16 3 -5 2 -10 -3 -10 -4 0 -14 -16 -22
-35 -8 -19 -18 -35 -24 -35 -5 0 -6 -3 -3 -6 3 -4 0 -16 -8 -28 -8 -11 -15
-28 -15 -38 0 -10 -4 -18 -8 -18 -5 0 -9 -7 -10 -15 -1 -8 -3 -22 -4 -30 -1
-8 -6 -15 -11 -15 -5 0 -7 -6 -4 -13 3 -7 -1 -21 -9 -31 -7 -11 -11 -22 -9
-27 3 -4 0 -20 -5 -35 -15 -39 -21 -100 -25 -249 -2 -88 1 -132 9 -137 8 -5 7
-8 -2 -8 -7 0 -10 -5 -7 -10 4 -6 8 -22 11 -35 7 -41 13 -68 23 -105 5 -19 13
-46 16 -60 4 -14 11 -34 15 -45 32 -73 43 -101 42 -107 -1 -5 3 -8 9 -8 5 0 7
-4 4 -10 -3 -5 -1 -10 4 -10 6 0 11 -6 11 -13 0 -7 9 -23 20 -35 11 -12 19
-23 18 -24 -4 -6 44 -75 80 -113 12 -13 22 -27 22 -30 0 -10 80 -85 90 -85 6
0 10 -6 10 -14 0 -8 9 -18 20 -21 11 -3 20 -9 20 -13 0 -4 18 -18 40 -32 22
-14 40 -28 40 -33 0 -4 4 -6 9 -3 5 3 12 -1 15 -10 4 -9 13 -14 21 -10 9 3 15
0 15 -10 0 -8 4 -13 9 -9 5 3 16 -1 24 -9 8 -8 17 -12 21 -9 3 4 6 1 6 -5 0
-7 3 -11 8 -10 4 1 27 -7 52 -18 25 -10 48 -18 53 -16 4 1 7 -3 7 -10 0 -6 3
-8 7 -5 3 4 11 3 17 -2 6 -5 38 -15 71 -22 33 -7 67 -14 75 -16 8 -2 26 -6 40
-9 36 -8 323 -12 335 -5 6 3 21 7 35 9 34 4 64 10 68 13 1 1 10 2 20 3 9 1 23
5 30 9 6 5 12 5 12 1 0 -3 7 -1 15 6 8 7 15 9 15 5 0 -4 7 -2 15 5 8 7 15 10
15 6 0 -4 13 0 29 8 16 9 31 12 35 9 3 -4 6 0 6 7 0 7 3 11 6 7 4 -3 13 0 21
8 8 8 23 15 34 15 10 0 19 5 19 10 0 6 7 10 15 10 8 0 15 5 15 11 0 5 5 7 10
4 6 -3 10 -1 10 4 0 6 6 11 14 11 8 0 21 6 28 13 7 6 29 23 48 36 19 14 39 31
43 38 5 7 12 11 17 8 5 -3 14 4 20 15 6 11 18 20 27 20 9 0 14 3 11 6 -3 3 14
26 38 52 76 81 84 91 84 100 0 5 9 17 20 27 11 10 18 20 16 23 -3 2 4 13 15
25 10 11 19 27 19 34 0 7 4 13 9 13 5 0 12 11 15 25 4 14 11 25 16 25 5 0 7 7
4 15 -4 8 -1 15 5 15 6 0 10 3 9 8 -1 4 3 17 10 30 7 12 10 22 6 22 -3 0 -2 6
4 13 9 12 40 108 49 157 31 161 27 388 -8 503 -1 3 -7 27 -13 52 -2 11 -9 32
-14 46 -6 15 -8 30 -5 33 4 3 1 6 -6 6 -7 0 -10 4 -6 9 3 5 1 12 -5 16 -5 3
-10 15 -10 26 0 10 -4 19 -10 19 -5 0 -10 3 -9 8 2 16 -14 52 -24 52 -6 0 -8
3 -5 6 4 3 -5 22 -18 41 -13 20 -24 42 -24 50 0 8 -4 12 -9 9 -5 -3 -14 8 -21
24 -7 17 -15 29 -17 26 -7 -7 -32 18 -26 26 5 9 -144 158 -158 158 -6 0 -7 5
-4 10 6 9 -8 14 -27 11 -5 0 -8 3 -8 9 0 6 -8 10 -17 10 -15 0 -16 2 -3 10 12
8 10 10 -8 10 -16 0 -21 4 -16 13 4 6 4 9 -1 5 -4 -4 -26 6 -48 22 -22 16 -44
27 -49 24 -4 -3 -8 0 -8 6 0 6 -4 8 -10 5 -5 -3 -10 -1 -10 5 0 7 -7 9 -15 6
-9 -3 -18 1 -22 10 -3 8 -12 13 -19 10 -8 -3 -14 -1 -14 4 0 6 -8 10 -18 10
-10 0 -22 4 -27 9 -6 5 -21 11 -35 13 -14 1 -27 6 -30 9 -3 4 -16 9 -30 10
-14 2 -28 9 -32 14 -5 6 -8 4 -8 -5 0 -10 -3 -11 -8 -4 -17 27 -309 40 -427
19z m315 -59 c25 -4 57 -9 72 -12 14 -2 53 -12 87 -23 34 -10 61 -16 61 -12 0
3 4 0 9 -7 4 -7 14 -14 22 -16 28 -5 59 -18 59 -25 0 -4 9 -7 20 -8 11 -1 27
-9 36 -17 9 -9 20 -14 25 -11 5 4 9 2 9 -3 0 -5 12 -15 28 -23 15 -8 32 -18
38 -24 39 -34 56 -45 70 -45 8 0 13 -4 10 -8 -3 -4 15 -24 39 -43 24 -18 44
-38 45 -42 0 -4 14 -21 30 -37 17 -16 30 -34 30 -40 0 -6 5 -8 10 -5 6 3 10 0
10 -8 0 -7 9 -23 20 -35 11 -12 20 -25 20 -30 0 -5 9 -17 20 -27 11 -10 17
-21 14 -26 -2 -5 3 -17 13 -27 10 -10 20 -27 21 -37 2 -11 10 -24 18 -28 8 -4
14 -19 14 -33 0 -13 4 -32 9 -42 11 -20 24 -53 27 -67 1 -5 3 -14 4 -20 2 -5
4 -14 5 -20 2 -5 4 -12 5 -15 2 -5 8 -41 13 -82 1 -13 5 -27 8 -33 14 -24 -6
-360 -21 -360 -1 0 -3 -11 -6 -24 -2 -14 -9 -30 -15 -38 -9 -10 -8 -13 2 -13
10 0 10 -3 1 -12 -7 -7 -12 -20 -12 -30 0 -10 -4 -18 -10 -18 -5 0 -10 -6 -10
-14 0 -20 -50 -126 -60 -126 -4 0 -7 -8 -6 -17 0 -10 -4 -17 -10 -16 -6 1 -11
-5 -12 -13 -1 -7 -3 -21 -4 -29 -1 -8 -4 -12 -7 -10 -4 2 -17 -12 -30 -31 -13
-19 -28 -34 -33 -34 -5 0 -6 -4 -3 -10 3 -5 1 -10 -5 -10 -6 0 -8 -4 -5 -10 3
-5 -1 -10 -9 -10 -9 0 -16 -4 -16 -10 0 -5 -11 -20 -25 -34 -14 -14 -25 -23
-25 -20 0 3 -15 -11 -34 -30 -18 -20 -38 -36 -44 -36 -6 0 -12 -3 -14 -8 -5
-12 -105 -82 -117 -82 -6 0 -11 -5 -11 -11 0 -5 -4 -8 -9 -5 -5 3 -14 -1 -21
-9 -7 -8 -16 -12 -21 -9 -5 3 -9 0 -9 -6 0 -6 -4 -8 -10 -5 -5 3 -10 1 -10 -6
0 -7 -3 -9 -6 -6 -4 3 -16 1 -28 -5 -11 -7 -23 -13 -26 -13 -3 0 -15 -6 -26
-13 -12 -6 -24 -9 -27 -6 -3 3 -14 1 -25 -5 -21 -11 -75 -24 -109 -25 -13 -1
-23 -3 -23 -6 0 -3 -8 -6 -17 -7 -24 -2 -55 -3 -73 -3 -8 -1 -46 -1 -85 -2
-61 -2 -136 5 -185 16 -76 16 -96 20 -102 21 -3 0 -10 3 -14 8 -4 4 -18 7 -30
7 -13 0 -26 5 -29 10 -3 6 -15 10 -25 10 -10 0 -25 7 -34 15 -8 9 -17 14 -18
13 -7 -6 -88 35 -88 44 0 4 -6 8 -13 8 -7 0 -23 9 -35 20 -12 11 -24 19 -26
18 -2 -2 -16 7 -30 19 -14 13 -26 20 -26 17 0 -4 -43 37 -96 91 -52 53 -93 99
-90 102 2 3 -6 15 -20 28 -13 12 -24 27 -24 34 0 6 -5 11 -11 11 -5 0 -7 5 -4
10 3 6 1 10 -5 10 -6 0 -8 5 -5 10 3 6 2 10 -3 10 -5 0 -19 23 -32 50 -13 28
-27 50 -32 50 -5 0 -6 5 -3 10 4 6 1 17 -5 25 -7 8 -10 15 -7 15 3 0 0 15 -8
33 -15 36 -41 141 -50 202 -10 67 -11 205 -2 205 5 0 4 6 -2 13 -6 8 -8 16 -6
19 6 5 14 57 18 108 1 14 6 31 10 38 5 6 5 17 2 22 -3 6 -1 10 6 10 7 0 10 3
7 6 -4 3 0 21 8 40 8 19 11 34 8 34 -4 0 -2 6 3 13 6 6 16 30 23 52 7 22 19
46 28 53 9 6 13 12 9 12 -4 0 -1 14 8 30 9 17 20 30 25 30 5 0 7 6 5 13 -3 6
6 24 20 39 14 15 25 32 25 38 0 5 8 10 18 10 14 0 15 2 2 10 -14 9 -7 14 13
11 4 -1 11 9 16 21 5 13 18 30 30 38 12 8 21 20 21 28 0 7 4 11 9 8 5 -3 12 1
15 10 3 8 10 12 16 9 6 -4 7 1 3 11 -4 11 -2 15 4 11 5 -3 23 7 38 23 15 16
32 27 37 24 4 -3 8 -1 8 4 0 11 91 73 138 93 17 7 32 18 32 22 0 5 5 5 10 2 6
-3 10 -1 10 6 0 7 3 10 6 7 3 -4 17 0 31 7 15 8 30 12 35 9 4 -3 8 -1 8 4 0 5
21 14 48 20 26 7 56 15 67 17 11 3 36 8 55 11 19 3 50 9 68 12 42 9 203 7 262
-2z"/>
<path d="M8628 6983 c-9 -3 -20 -14 -25 -26 -4 -12 -8 -125 -10 -252 -1 -126
-3 -236 -4 -242 -3 -16 -16 -17 -21 -2 -2 5 -12 11 -21 13 -10 1 -22 7 -25 12
-8 11 -93 40 -104 36 -5 -1 -8 2 -8 6 0 4 -39 6 -87 5 -108 -4 -113 -4 -113
-15 0 -4 -6 -8 -13 -8 -19 0 -79 -30 -98 -49 -9 -9 -25 -23 -35 -32 -28 -24
-102 -121 -96 -126 1 -2 2 -4 1 -5 0 -2 -2 -10 -4 -18 -2 -8 -7 -33 -12 -55
-5 -22 -8 -64 -7 -94 3 -56 41 -181 56 -181 4 0 8 -5 8 -10 0 -6 11 -22 25
-36 14 -14 25 -28 25 -33 0 -4 11 -14 25 -21 13 -7 22 -18 18 -23 -4 -6 -1 -7
6 -3 7 5 20 1 29 -7 15 -13 41 -25 67 -33 46 -13 67 -16 115 -17 48 0 100 6
135 17 36 11 65 27 65 36 0 6 4 8 10 5 5 -3 21 5 34 18 15 15 29 21 37 16 7
-4 17 -5 23 -2 5 3 6 1 2 -5 -3 -6 7 -16 23 -23 16 -7 27 -17 24 -22 -3 -5 2
-5 12 1 10 5 20 18 22 28 2 11 3 266 4 568 0 584 1 572 -47 579 -10 2 -27 2
-36 0z m-215 -575 c9 -1 17 -6 17 -10 0 -4 7 -8 14 -8 23 0 100 -80 125 -131
35 -71 27 -193 -15 -240 -10 -11 -14 -19 -9 -19 4 0 -9 -16 -30 -35 -43 -41
-111 -79 -125 -70 -6 3 -10 2 -10 -3 0 -10 -75 -8 -121 2 -50 11 -129 63 -129
85 0 6 -5 11 -11 11 -9 0 -37 53 -46 90 -9 34 -4 137 8 165 7 17 11 34 11 38
-1 4 5 10 13 13 8 4 15 10 15 16 0 13 62 68 77 68 7 0 13 4 13 8 0 20 117 32
203 20z"/>
<path d="M9126 6532 c-3 -2 -20 -7 -61 -15 -6 -2 -28 -12 -48 -25 -21 -12 -40
-22 -42 -22 -22 0 -133 -143 -140 -180 -1 -3 -5 -21 -10 -40 -13 -53 -12 -151
1 -192 7 -20 10 -39 7 -42 -4 -3 -1 -6 5 -6 7 0 11 -3 10 -7 -4 -14 35 -85 49
-90 7 -3 11 -9 8 -13 -3 -4 13 -20 35 -35 22 -15 40 -32 40 -36 0 -5 6 -9 14
-9 8 0 16 -4 18 -10 2 -5 12 -11 23 -13 11 -1 26 -6 33 -10 24 -16 138 -29
156 -19 5 3 25 6 45 7 20 0 46 6 57 13 12 6 24 8 28 5 3 -3 6 -1 6 6 0 7 6 11
13 8 6 -2 22 7 35 20 12 13 22 21 22 17 0 -4 12 6 27 22 15 16 31 28 35 26 4
-1 8 7 8 17 0 11 4 22 9 25 7 5 8 25 2 59 0 4 -8 7 -16 7 -8 0 -15 4 -15 9 0
10 -19 9 -37 -2 -7 -5 -13 -5 -13 -1 0 4 -17 -11 -37 -33 -21 -22 -53 -46 -70
-54 -18 -8 -33 -17 -33 -20 0 -3 -6 -6 -12 -6 -7 -1 -32 -4 -56 -7 -25 -3 -52
-1 -64 5 -16 9 -19 8 -13 -3 6 -10 5 -11 -6 0 -7 6 -20 12 -29 12 -9 0 -25 7
-36 15 -19 14 -18 15 8 40 15 14 32 25 39 25 6 0 9 7 5 15 -3 8 0 15 7 15 7 0
39 24 70 54 31 29 57 52 57 50 0 -2 15 11 34 29 19 17 61 56 94 85 96 85 112
100 112 112 0 5 6 10 13 10 9 0 8 3 -2 9 -7 5 -10 14 -7 20 4 6 2 11 -3 11 -6
0 -11 7 -11 15 0 8 -5 15 -10 15 -6 0 -24 13 -39 29 -16 16 -32 27 -36 23 -3
-4 -11 1 -16 11 -6 9 -19 17 -29 17 -10 0 -21 4 -24 9 -8 13 -72 24 -144 25
-35 1 -65 0 -66 -2z m129 -121 c0 -1 11 -5 25 -7 14 -3 27 -9 28 -14 2 -6 10
-10 18 -10 9 0 14 -7 12 -17 -3 -19 -28 -44 -123 -127 -31 -27 -72 -65 -91
-84 -19 -19 -34 -31 -34 -28 0 3 -15 -9 -32 -27 -36 -37 -106 -88 -94 -69 4 7
3 12 -2 12 -28 0 -36 148 -12 205 7 17 13 33 12 37 -4 16 97 102 138 118 34
13 155 22 155 11z"/>
<path d="M3078 7784 c-21 -9 -35 -20 -32 -25 3 -5 1 -9 -4 -9 -14 0 -48 -33
-55 -53 -4 -10 -12 -15 -17 -12 -6 4 -9 3 -8 -2 3 -11 -25 -83 -32 -83 -4 0
-7 -6 -7 -12 -2 -20 -27 -82 -36 -89 -5 -3 -8 -10 -8 -15 1 -5 -3 -31 -10 -59
-6 -27 -13 -66 -16 -85 -3 -19 -9 -39 -13 -44 -5 -5 -5 -19 0 -31 5 -14 5 -26
-2 -33 -14 -14 -11 -134 4 -185 17 -56 54 -128 62 -120 3 3 6 1 6 -5 0 -6 34
-46 75 -88 41 -42 72 -80 69 -85 -3 -5 -1 -9 4 -9 26 0 32 -89 31 -496 0 -373
-2 -489 -9 -489 -1 0 -4 -20 -6 -44 -3 -25 -9 -50 -15 -57 -7 -8 -7 -14 1 -19
7 -4 8 -11 1 -18 -5 -7 -10 -15 -10 -19 -1 -5 -1 -9 -2 -10 0 -2 -2 -12 -4
-23 -2 -11 -11 -51 -20 -90 -9 -38 -18 -81 -20 -95 -1 -14 -4 -25 -5 -25 -1 0
-3 -11 -6 -25 -2 -14 -7 -38 -9 -55 -3 -16 -8 -76 -10 -133 -7 -145 15 -192
107 -237 33 -16 50 -19 57 -12 7 7 11 8 11 1 0 -33 119 18 150 63 27 40 30 48
35 121 2 28 7 57 10 62 3 6 3 10 -2 10 -4 0 -8 12 -9 28 0 23 -7 79 -19 157
-2 11 -4 21 -5 23 -4 3 -20 84 -25 122 -1 8 -5 22 -9 30 -3 8 -8 29 -10 45 -2
17 -6 37 -9 45 -3 8 -8 33 -11 55 -2 22 -7 47 -10 55 -3 8 -7 39 -10 68 -3 29
-8 58 -12 64 -5 7 -2 8 6 3 10 -6 12 -4 6 11 -10 24 -11 168 -2 183 4 6 4 11
-1 11 -9 0 -9 201 0 225 4 8 3 15 -1 15 -9 0 -5 341 5 390 3 19 6 38 5 43 -1
4 3 7 9 7 5 0 7 5 4 10 -3 6 -1 10 5 10 6 0 14 8 17 18 4 9 30 40 59 69 29 28
49 55 46 59 -4 4 1 4 11 1 12 -5 17 -1 17 13 0 11 4 20 10 20 5 0 16 17 26 38
9 20 20 46 25 57 19 41 25 122 15 195 -3 19 -7 53 -10 75 -7 51 -11 69 -26
125 -15 57 -16 58 -25 98 -4 17 -11 32 -16 32 -5 0 -9 7 -9 15 0 8 -9 30 -20
50 -11 19 -16 35 -12 35 4 0 -1 5 -10 11 -10 5 -18 17 -18 24 0 8 -4 15 -10
15 -5 0 -10 6 -10 13 0 14 -35 47 -50 47 -6 0 -10 5 -10 10 0 6 -7 10 -15 10
-8 0 -15 4 -15 8 0 15 -104 12 -142 -4z"/>
<path d="M1596 7720 c-61 -5 -61 -5 -70 -60 -1 -9 -5 -20 -9 -26 -3 -6 -4 -14
0 -18 8 -8 11 -56 3 -56 -7 0 -5 -59 3 -66 3 -3 2 -16 -3 -29 -5 -13 -6 -25
-3 -28 9 -9 9 -117 0 -117 -5 0 -5 -5 -2 -11 9 -14 13 -69 5 -69 -3 0 -4 -17
-2 -37 4 -48 3 -96 -3 -101 -2 -2 0 -15 5 -28 6 -15 6 -34 0 -50 -7 -16 -7
-23 0 -19 6 4 7 -2 1 -18 -5 -13 -6 -30 -1 -37 5 -7 4 -23 0 -36 -5 -12 -6
-24 -4 -27 7 -7 11 -127 4 -127 -5 0 -4 -58 0 -70 6 -15 4 -36 -4 -47 -5 -7
-5 -13 0 -13 5 0 9 -27 9 -60 0 -33 -3 -60 -7 -60 -4 0 -5 -10 -2 -22 10 -47
11 -69 2 -74 -4 -3 -5 -10 -1 -17 9 -15 9 -60 -1 -75 -4 -7 -3 -12 1 -12 10 0
10 -41 0 -57 -4 -7 -4 -14 1 -17 9 -6 8 -59 -3 -75 -3 -6 -2 -11 2 -11 10 0
10 -41 0 -57 -4 -7 -4 -14 0 -16 10 -6 8 -110 -1 -126 -4 -6 -4 -11 1 -11 4 0
8 -27 7 -60 0 -33 2 -60 5 -60 3 0 6 -11 6 -24 0 -13 -3 -22 -7 -20 -11 7 -57
-29 -58 -44 0 -7 -4 -10 -10 -7 -5 3 -10 3 -10 -2 -1 -14 -65 -83 -78 -83 -7
0 -12 -7 -12 -16 0 -8 -4 -13 -8 -10 -5 3 -15 -4 -23 -16 -8 -11 -23 -29 -33
-39 -11 -11 -17 -19 -13 -19 4 0 -16 -22 -44 -50 -28 -27 -48 -50 -44 -50 3 0
-5 -11 -19 -24 -15 -13 -26 -27 -26 -31 0 -5 -14 -21 -31 -36 -19 -17 -28 -32
-23 -40 4 -8 3 -10 -4 -5 -7 4 -12 1 -12 -8 0 -9 -4 -16 -9 -16 -8 0 -18 -22
-27 -61 -2 -8 -10 -29 -19 -45 -8 -16 -15 -35 -15 -41 0 -7 -4 -13 -10 -13 -5
0 -7 -7 -4 -15 4 -8 2 -15 -3 -15 -5 0 -15 -16 -23 -35 -8 -19 -18 -35 -24
-35 -5 0 -6 -3 -3 -7 4 -3 -5 -21 -19 -40 -14 -18 -23 -33 -20 -33 6 0 -17
-30 -46 -61 -9 -9 -14 -20 -10 -23 3 -3 0 -6 -6 -6 -7 0 -12 -7 -12 -15 0 -7
-8 -19 -17 -24 -10 -6 -15 -11 -11 -11 8 0 -12 -27 -44 -62 -10 -10 -17 -19
-16 -20 2 -2 -5 -14 -15 -28 -9 -13 -17 -21 -17 -16 0 5 -10 -4 -22 -20 -13
-16 -26 -30 -30 -32 -5 -2 -8 -10 -8 -18 0 -8 -4 -14 -10 -14 -5 0 -10 -4 -10
-10 0 -11 -32 -49 -98 -116 -24 -24 -41 -44 -38 -44 4 0 -59 -69 -171 -186
-28 -30 -50 -54 -49 -54 2 0 -28 -31 -65 -70 -37 -38 -65 -70 -62 -70 3 0 -15
-20 -41 -44 -25 -25 -46 -49 -46 -55 0 -6 -4 -11 -10 -11 -5 0 -10 -7 -10 -15
0 -8 -5 -15 -11 -15 -6 0 -9 -7 -5 -15 3 -8 2 -15 -3 -15 -4 0 -7 -10 -5 -22
1 -13 3 -32 3 -44 3 -77 198 -48 298 46 15 14 28 23 29 20 1 -3 17 8 35 23 19
15 47 38 62 50 15 12 65 58 111 102 106 101 246 222 246 212 0 -3 21 15 47 39
27 24 56 47 66 50 9 3 15 10 12 15 -4 5 -2 9 4 9 5 0 22 11 37 25 14 13 32 22
38 18 6 -3 8 -3 4 2 -5 5 9 19 29 33 44 30 69 51 94 76 11 11 19 16 19 10 0
-5 5 -1 11 9 6 9 15 14 21 11 6 -4 8 -3 4 4 -3 6 15 24 44 43 27 18 50 37 50
42 0 6 3 8 6 4 7 -7 74 40 87 61 5 7 12 10 17 7 5 -3 15 4 23 15 7 11 17 17
20 14 4 -4 9 1 13 10 3 9 15 16 25 16 10 0 19 5 19 11 0 5 5 7 10 4 6 -3 10
-2 10 3 0 5 30 29 68 52 37 24 76 53 87 65 12 12 26 20 32 18 7 -3 21 5 32 16
12 12 21 18 21 15 0 -3 14 6 31 20 17 14 37 26 45 26 8 0 14 4 14 9 0 9 83 45
96 41 4 -1 10 2 13 7 10 15 73 43 82 37 5 -3 9 0 9 5 0 6 7 11 15 11 8 0 15 5
15 12 0 6 3 8 7 5 3 -4 11 -2 18 3 6 5 20 11 31 13 10 1 24 5 29 9 13 7 78 22
88 20 4 -1 7 2 7 6 0 5 12 10 28 10 15 1 39 4 55 6 15 2 30 -1 33 -6 3 -4 10
-6 15 -3 5 4 9 2 9 -4 0 -6 11 -13 24 -17 22 -5 24 -10 21 -51 -2 -26 -7 -49
-12 -52 -4 -3 -9 -15 -11 -26 -2 -11 -6 -27 -9 -35 -4 -8 -7 -19 -7 -23 -1 -4
-8 -12 -16 -17 -8 -5 -11 -10 -6 -10 12 0 -65 -70 -78 -71 -13 -1 -56 -7 -106
-15 -19 -3 -46 -7 -60 -8 -14 -2 -33 -7 -42 -11 -9 -4 -22 -4 -28 0 -5 3 -10
1 -10 -4 0 -6 -13 -11 -30 -11 -16 0 -30 -5 -30 -11 0 -5 -4 -8 -9 -4 -5 3
-12 1 -16 -5 -4 -6 -11 -8 -16 -5 -5 4 -9 1 -9 -4 0 -6 -7 -11 -16 -11 -9 0
-39 -16 -65 -35 -27 -19 -52 -35 -55 -35 -6 0 -54 -50 -55 -59 -7 -35 -6 -62
2 -66 5 -4 7 -11 4 -16 -4 -5 -1 -9 4 -9 6 0 10 -3 9 -7 -2 -5 1 -8 5 -8 5 0
13 -8 18 -17 6 -10 17 -18 24 -18 8 0 15 -3 15 -8 0 -12 162 -4 178 8 1 2 5 3
10 4 4 1 13 5 20 9 6 5 12 6 12 2 0 -3 9 -1 21 5 11 7 33 14 47 17 41 8 57 11
60 13 1 2 7 4 12 5 6 1 12 4 15 5 3 1 10 4 15 5 6 1 11 3 13 5 2 2 9 4 72 19
22 6 89 8 150 6 125 -4 135 -5 135 -17 0 -4 6 -8 14 -8 8 0 17 -15 20 -35 5
-27 2 -42 -14 -65 -12 -17 -19 -30 -16 -30 3 0 -6 -12 -19 -26 -14 -15 -25
-31 -25 -35 0 -5 -7 -9 -15 -9 -8 0 -14 -4 -12 -9 1 -5 -13 -23 -30 -40 -18
-17 -33 -34 -33 -37 0 -9 -63 -64 -73 -64 -5 0 -6 -4 -2 -9 3 -5 -4 -13 -16
-16 -11 -4 -18 -9 -16 -12 3 -3 -8 -17 -25 -31 -16 -15 -56 -52 -88 -82 -32
-30 -62 -57 -67 -59 -13 -5 -117 -75 -123 -81 -3 -4 -20 -13 -38 -21 -17 -8
-32 -17 -32 -21 0 -5 -7 -8 -15 -8 -8 0 -15 -4 -15 -8 0 -8 -99 -61 -123 -66
-7 -2 -23 -8 -37 -13 -14 -6 -28 -9 -32 -6 -5 2 -8 0 -8 -5 0 -9 -74 -28 -76
-20 0 1 -7 -2 -15 -8 -13 -11 -56 -21 -134 -31 -16 -2 -69 -5 -118 -7 -48 -2
-90 -6 -93 -9 -3 -3 -18 -1 -34 5 -26 9 -28 13 -27 58 3 79 -35 102 -114 70
-16 -7 -29 -16 -29 -21 0 -5 -5 -9 -11 -9 -13 0 -39 -25 -39 -39 0 -5 -5 -22
-12 -38 -31 -76 -31 -122 -1 -150 13 -13 27 -23 30 -23 3 0 13 -8 22 -18 34
-39 62 -46 181 -43 195 4 220 6 220 12 0 6 117 34 122 29 2 -2 22 7 44 18 23
12 44 18 48 15 3 -4 6 -1 6 5 0 7 3 11 8 10 10 -4 134 43 152 57 20 15 73 39
83 37 4 -1 7 2 7 7 0 4 20 19 45 32 25 13 45 27 45 30 0 3 18 14 40 24 22 10
40 24 40 32 0 7 5 13 10 13 6 0 35 16 65 35 30 19 55 32 55 29 0 -2 12 7 28
21 31 29 133 91 145 87 4 -1 7 2 7 7 0 8 24 17 70 26 3 0 23 4 45 9 29 6 53
21 85 54 24 26 46 46 47 44 2 -1 17 5 33 13 17 9 30 11 30 5 0 -5 -4 -10 -8
-10 -10 0 -14 -19 -15 -80 -1 -55 4 -71 23 -87 8 -7 11 -13 6 -13 -5 0 6 -14
25 -31 29 -26 40 -30 74 -26 22 2 58 12 80 22 22 10 45 19 52 21 20 4 107 48
121 62 8 7 18 10 23 7 5 -4 9 -2 9 3 0 4 20 19 45 31 25 12 45 27 45 32 0 6 4
8 9 4 5 -3 16 2 25 11 9 8 25 16 36 17 11 1 23 9 26 19 3 10 9 16 14 13 5 -3
11 -1 15 5 4 6 11 8 16 5 5 -4 9 -2 9 4 0 13 58 43 73 38 6 -2 12 -23 12 -48
1 -24 4 -50 9 -57 4 -6 4 -12 0 -12 -3 0 -1 -7 6 -15 7 -8 9 -15 6 -15 -4 0
-1 -10 6 -22 7 -13 13 -25 13 -28 2 -18 24 -41 43 -45 12 -2 26 -6 31 -10 5
-3 12 -2 15 3 3 5 19 7 37 6 17 -1 50 5 73 13 22 8 46 16 51 17 40 11 124 66
100 66 -5 0 -1 6 10 13 14 11 15 16 5 22 -10 6 -9 9 1 16 7 4 10 11 6 15 -13
13 -96 8 -114 -7 -10 -9 -29 -15 -43 -14 -27 1 -75 24 -67 32 3 2 1 18 -3 34
-5 16 -5 29 -1 29 4 0 14 18 21 40 7 22 16 40 20 40 9 0 65 102 62 113 -1 4 2
7 7 7 6 0 6 12 1 29 -4 16 -6 32 -2 35 3 3 -1 6 -8 6 -7 0 -10 3 -7 7 4 3 -2
12 -12 20 -20 14 -81 8 -81 -8 0 -5 -3 -8 -7 -7 -5 1 -22 -5 -39 -15 -17 -9
-34 -13 -38 -10 -3 4 -6 1 -6 -5 0 -7 -5 -12 -11 -12 -7 0 -18 -8 -26 -17 -8
-10 -12 -13 -9 -6 7 13 -75 -26 -86 -42 -4 -5 -8 -6 -8 -2 0 5 -12 0 -27 -11
-16 -10 -64 -36 -108 -57 -44 -21 -81 -42 -83 -46 -2 -5 -11 -9 -20 -9 -9 0
-26 -7 -36 -15 -10 -8 -23 -12 -28 -9 -4 3 -11 -1 -14 -9 -3 -9 -17 -18 -31
-22 -14 -3 -32 -13 -40 -21 -8 -8 -19 -12 -24 -9 -5 4 -9 2 -9 -3 0 -5 -18
-16 -40 -25 -36 -14 -42 -14 -55 -1 -11 12 -12 20 -5 35 6 10 16 19 22 19 6 0
9 3 5 6 -3 4 6 19 21 35 15 15 38 44 52 64 14 20 40 53 58 75 18 21 33 42 32
46 -1 4 5 11 14 16 9 5 14 13 11 19 -4 5 -1 9 4 9 6 0 17 15 24 33 13 30 12
33 -11 54 -20 16 -30 19 -44 12 -10 -5 -18 -7 -18 -4 0 3 -8 -3 -18 -12 -10
-10 -36 -31 -57 -48 -22 -16 -47 -38 -57 -47 -10 -10 -18 -15 -18 -12 0 3 -6
-1 -14 -8 -7 -7 -35 -31 -62 -53 -26 -22 -56 -48 -66 -57 -10 -10 -18 -15 -18
-10 0 4 -6 0 -13 -8 -16 -20 -34 -22 -34 -4 0 8 4 14 9 14 5 0 6 4 3 10 -3 5
4 20 16 32 24 26 77 131 82 165 2 12 5 25 8 28 11 11 -1 109 -16 125 -8 9 -15
22 -15 29 0 7 -4 10 -9 7 -5 -3 -11 1 -15 9 -3 8 -12 15 -21 15 -8 0 -15 4
-15 8 0 11 -68 43 -105 49 -16 3 -31 9 -33 14 -2 5 -10 9 -18 9 -9 0 -12 5 -9
10 3 6 1 10 -6 10 -13 0 -7 72 12 135 7 22 12 43 11 48 -1 4 2 7 7 7 8 0 16
23 28 80 13 62 1 170 -19 170 -5 0 -6 5 -3 10 3 6 -1 10 -9 10 -9 0 -16 7 -16
16 0 8 -4 13 -8 10 -5 -3 -9 1 -9 8 0 8 6 12 14 9 7 -3 13 2 13 12 0 9 4 14 8
11 8 -5 36 26 34 38 -1 3 10 17 23 32 14 15 22 30 19 35 -3 5 -1 9 4 9 5 0 17
21 27 48 10 26 21 52 25 57 4 6 11 24 15 40 12 44 12 45 15 50 3 6 4 11 13 55
28 151 26 329 -7 469 -8 33 -11 61 -8 61 4 0 2 4 -3 8 -6 4 -16 23 -22 42 -16
51 -37 104 -43 110 -3 3 -16 26 -29 53 -13 26 -28 47 -33 47 -5 0 -7 4 -4 8 3
5 -6 20 -20 35 -14 15 -21 27 -17 27 4 0 0 5 -9 11 -10 5 -18 15 -18 20 0 6
-13 24 -30 39 -16 15 -30 34 -30 41 0 7 -3 10 -6 6 -3 -3 -27 17 -54 44 -26
27 -52 49 -58 49 -5 0 -13 7 -16 16 -3 8 -10 12 -16 9 -5 -3 -10 -2 -10 2 0 8
-58 47 -70 47 -3 0 -13 7 -23 16 -10 8 -20 14 -22 13 -3 -2 -25 8 -49 22 -24
13 -46 22 -48 19 -3 -3 -8 2 -11 10 -3 8 5 31 19 51 13 20 24 40 24 46 0 6 5
7 10 4 6 -4 10 -3 9 2 -4 15 13 83 21 83 12 0 6 232 -6 255 -6 11 -22 43 -35
70 -13 28 -28 55 -34 61 -5 6 -25 30 -44 53 -19 22 -38 41 -43 41 -4 0 -17 9
-28 20 -11 11 -27 20 -35 20 -8 0 -15 4 -15 8 0 8 -44 25 -100 39 -33 9 -219
18 -274 13z m254 -273 c54 -27 91 -58 84 -69 -3 -4 0 -8 5 -8 6 0 11 -6 11
-14 0 -8 6 -16 12 -18 12 -4 17 -119 8 -170 -3 -17 -70 -107 -70 -94 0 4 -9
-2 -21 -13 -27 -25 -95 -43 -107 -27 -5 6 -9 52 -8 101 1 50 -2 98 -7 108 -4
9 -4 17 0 17 10 0 9 103 -1 118 -4 7 -3 12 1 12 5 0 8 14 7 30 -1 17 2 30 8
30 5 0 6 5 3 10 -11 17 28 11 75 -13z m60 -687 c68 -18 133 -40 145 -50 5 -4
13 -9 17 -9 18 -3 98 -46 98 -53 0 -4 6 -8 13 -8 6 0 26 -14 44 -30 18 -17 35
-30 38 -30 13 0 150 -150 138 -150 -5 0 -3 -4 2 -8 13 -9 64 -88 67 -104 2 -7
9 -19 16 -26 7 -8 10 -18 7 -23 -4 -5 -2 -9 2 -9 12 0 54 -156 56 -207 1 -24
4 -43 7 -43 8 0 5 -64 -3 -77 -4 -6 -3 -14 3 -18 6 -4 8 -10 5 -14 -2 -5 -7
-35 -11 -67 -3 -32 -11 -68 -17 -79 -6 -11 -9 -20 -7 -20 6 0 -22 -80 -33 -93
-5 -7 -7 -15 -4 -19 4 -3 -3 -14 -15 -24 -11 -11 -18 -19 -14 -19 8 0 -24 -52
-39 -62 -5 -4 -10 -12 -10 -18 0 -6 -5 -14 -11 -18 -20 -13 -38 -56 -25 -60 6
-2 11 -7 11 -12 0 -9 -40 -25 -53 -22 -4 1 -22 -5 -39 -14 -17 -9 -55 -18 -85
-20 -71 -6 -75 -7 -92 -22 -7 -7 -20 -11 -27 -8 -8 3 -14 1 -14 -4 0 -6 -7
-10 -15 -10 -8 0 -15 -4 -15 -10 0 -5 -18 -14 -40 -20 -22 -6 -40 -15 -40 -21
0 -6 -4 -8 -9 -5 -5 3 -19 -2 -32 -12 -13 -10 -41 -26 -61 -37 -21 -11 -38
-23 -38 -28 0 -4 -4 -6 -9 -2 -5 3 -16 -1 -24 -9 -13 -13 -17 -13 -31 3 -9 10
-13 21 -9 25 10 10 10 86 1 86 -4 0 -5 7 -1 15 8 21 10 365 2 365 -4 0 -3 15
1 34 5 22 3 39 -3 45 -6 6 -7 11 -1 11 8 0 12 383 4 415 -1 6 -1 15 0 20 5 27
2 254 -4 264 -4 6 -4 11 1 11 4 0 7 24 5 53 -3 59 -3 51 -1 155 1 42 5 84 9
92 10 19 71 19 140 0z m-395 -1425 c-1 -14 2 -28 6 -31 5 -3 4 -14 -1 -25 -6
-10 -7 -19 -2 -19 8 0 8 -58 -1 -66 -3 -3 -1 -19 3 -35 5 -18 5 -29 -1 -29 -6
0 -7 -5 -4 -11 4 -5 8 -21 10 -35 1 -13 11 -34 21 -47 16 -19 16 -20 1 -8 -15
12 -17 12 -11 -3 3 -9 1 -16 -6 -16 -6 0 -8 -4 -5 -10 3 -5 -3 -10 -15 -10
-11 0 -23 -7 -26 -15 -4 -8 -10 -13 -14 -10 -4 3 -13 -2 -20 -10 -7 -8 -16
-13 -20 -10 -4 2 -17 -7 -30 -20 -13 -13 -27 -22 -31 -19 -5 3 -9 1 -9 -3 0
-5 -15 -17 -32 -28 -18 -10 -35 -21 -38 -24 -3 -3 -35 -26 -72 -50 -37 -25
-64 -49 -61 -55 3 -5 2 -6 -4 -3 -5 3 -21 -5 -36 -19 -15 -13 -29 -24 -33 -23
-3 0 -17 -8 -30 -20 -13 -12 -29 -21 -34 -21 -6 0 -13 -7 -16 -15 -4 -8 -15
-15 -27 -15 -11 0 -18 -3 -14 -6 6 -6 -11 -28 -25 -33 -4 -1 -24 -18 -44 -37
-21 -18 -46 -36 -56 -40 -10 -3 -18 -10 -18 -16 0 -6 -6 -6 -15 2 -13 11 -14
10 -9 -4 4 -11 1 -16 -10 -16 -14 0 -15 4 -6 20 6 11 15 20 20 20 6 0 10 4 10
10 0 5 18 28 40 52 22 24 40 46 40 49 0 4 12 20 28 37 78 85 102 113 102 117
0 7 28 40 76 90 23 24 39 46 36 49 -3 3 2 6 11 6 10 0 16 4 15 9 -2 5 5 17 15
28 55 57 87 96 87 104 0 6 4 8 9 5 5 -3 17 7 27 22 10 15 22 32 28 38 6 7 20
24 31 40 11 15 34 42 52 60 18 19 40 48 49 65 31 62 65 80 59 34z m255 -185
c0 -5 -2 -10 -4 -10 -3 0 -8 5 -11 10 -3 6 -1 10 4 10 6 0 11 -4 11 -10z"/>
<path d="M4703 7717 c-2 -4 -9 -5 -14 -2 -5 4 -12 -1 -15 -9 -3 -9 -9 -14 -13
-12 -4 3 -7 -36 -7 -85 0 -49 4 -89 8 -89 5 0 7 -4 3 -9 -12 -21 37 -28 195
-30 116 -2 169 -6 178 -14 10 -10 12 -270 13 -1248 0 -679 4 -1241 9 -1249 9
-14 158 -31 166 -19 2 4 13 5 23 2 12 -3 23 2 29 14 6 10 11 104 12 212 0 107
3 198 6 203 3 4 2 8 -3 8 -7 0 -8 1887 -2 2032 2 27 8 49 15 52 7 3 86 6 175
7 180 2 203 5 195 25 -3 8 -2 14 3 14 9 0 8 146 -2 176 -6 16 -17 21 -55 23
-111 7 -914 5 -919 -2z"/>
<path d="M5863 7717 c-2 -4 -9 -4 -15 -1 -6 4 -8 2 -4 -4 3 -5 1 -12 -6 -14
-8 -3 -11 -339 -11 -1366 0 -749 3 -1365 7 -1369 4 -4 25 -7 46 -8 22 0 40 -3
40 -7 0 -4 13 -3 30 2 18 5 32 5 35 -1 4 -5 14 -5 26 1 13 8 19 7 19 0 0 -6 8
-4 18 6 17 17 20 81 22 432 0 33 4 51 10 47 6 -3 10 -1 10 5 0 11 14 0 77 -57
13 -13 26 -23 29 -23 5 0 13 -6 56 -44 15 -13 55 -45 90 -72 35 -26 70 -56 79
-66 9 -10 19 -15 23 -11 3 3 6 1 6 -6 0 -7 5 -9 12 -5 7 4 8 3 4 -4 -3 -6 2
-16 13 -22 12 -6 31 -20 44 -33 49 -46 92 -77 105 -77 7 0 11 -3 9 -7 -3 -5 1
-14 9 -21 8 -7 14 -10 14 -7 0 4 11 -2 25 -13 19 -15 42 -20 111 -21 48 -1 91
-4 95 -7 4 -2 10 0 14 5 3 6 12 8 20 4 9 -3 32 -2 52 2 27 5 33 9 22 16 -11 7
-11 9 0 9 10 0 11 3 2 13 -6 8 -9 17 -6 20 3 4 2 5 -1 3 -3 -3 -22 11 -42 30
-19 19 -39 34 -45 34 -5 0 -17 8 -26 18 -14 15 -78 69 -145 122 -10 8 -29 25
-42 38 -13 13 -24 19 -24 15 0 -4 -6 -1 -13 7 -10 13 -46 44 -146 125 -14 11
-35 30 -48 42 -13 12 -23 20 -23 17 0 -3 -6 1 -13 8 -17 16 -10 49 9 41 8 -3
14 0 14 6 0 6 3 10 8 9 13 -4 82 26 82 35 0 4 4 6 9 2 5 -3 12 -1 16 5 4 6 11
8 16 5 5 -4 9 -1 9 6 0 7 3 10 6 6 3 -3 15 3 27 13 11 11 23 17 27 15 5 -3 10
2 14 10 3 8 11 15 18 15 8 0 20 9 28 20 8 11 18 20 23 20 14 0 157 148 196
203 19 26 38 47 43 47 5 0 7 4 3 9 -3 5 2 17 11 25 8 9 12 16 7 16 -4 0 -1 6
7 13 16 13 45 67 42 80 -1 4 2 7 7 7 5 0 12 14 16 30 4 17 11 30 17 30 6 0 8
6 5 14 -3 8 1 20 9 27 8 6 12 14 10 17 -3 2 1 20 9 38 8 19 12 34 9 34 -3 0 0
9 6 19 5 11 12 34 15 53 3 18 9 57 14 86 8 52 7 282 -1 332 -10 57 -31 136
-39 146 -5 6 -6 13 -3 17 3 3 0 15 -6 27 -6 12 -14 34 -16 48 -3 15 -8 29 -12
32 -4 3 -23 38 -42 77 -19 40 -38 73 -42 73 -5 0 -8 7 -8 15 0 13 -21 43 -57
81 -7 7 -13 18 -13 24 0 6 -7 13 -15 16 -8 4 -15 10 -15 14 0 14 -107 119
-114 113 -3 -4 -6 1 -6 11 0 9 -4 15 -8 12 -5 -3 -15 4 -22 15 -8 10 -18 19
-23 19 -8 0 -23 11 -57 42 -10 9 -21 14 -24 11 -3 -4 -6 0 -6 7 0 7 -3 10 -7
7 -3 -4 -21 4 -38 18 -18 13 -35 21 -39 18 -3 -4 -6 -1 -6 5 0 7 -3 11 -7 10
-5 -1 -21 5 -38 12 -16 7 -33 13 -37 12 -5 -1 -8 2 -8 6 0 5 -6 9 -12 10 -25
2 -48 8 -54 15 -4 4 -18 7 -30 7 -13 0 -25 4 -28 8 -2 4 -17 9 -33 10 -29 3
-68 9 -68 12 0 2 -175 10 -273 13 -46 1 -86 -1 -89 -6z m332 -251 c52 -8 66
-11 88 -21 10 -4 21 -5 24 -1 4 3 13 0 22 -7 9 -7 35 -19 59 -27 23 -7 42 -17
42 -22 0 -4 6 -8 14 -8 7 0 19 -7 26 -15 7 -9 15 -13 18 -10 3 2 13 -5 23 -17
11 -11 19 -17 19 -13 0 5 9 0 20 -11 33 -33 48 -43 54 -37 3 4 6 -1 6 -11 0
-9 11 -22 25 -28 14 -6 25 -15 25 -20 0 -5 5 -6 12 -2 8 5 9 2 5 -10 -4 -9 -3
-15 1 -12 4 2 31 -20 60 -50 30 -30 50 -54 46 -54 -4 0 0 -8 9 -17 33 -37 87
-153 103 -224 34 -146 40 -344 12 -469 -22 -103 -22 -103 -29 -115 -4 -5 -9
-21 -12 -35 -4 -14 -22 -51 -41 -82 -18 -31 -31 -60 -27 -64 3 -4 0 -4 -6 0
-7 4 -13 3 -13 -3 0 -6 -15 -25 -32 -43 -18 -18 -32 -36 -30 -40 1 -5 -2 -8
-7 -8 -13 0 -60 -47 -54 -54 4 -3 1 -6 -6 -6 -7 0 -25 -13 -41 -30 -15 -16
-30 -26 -34 -23 -3 3 -6 1 -6 -4 0 -6 -20 -24 -45 -40 -25 -15 -45 -32 -45
-36 0 -5 -4 -6 -9 -2 -5 3 -12 1 -16 -5 -6 -10 -83 -50 -96 -50 -4 0 -20 -5
-36 -12 -15 -6 -32 -12 -38 -13 -5 -1 -12 -3 -15 -4 -7 -4 -33 -8 -80 -15 -23
-3 -45 -8 -51 -11 -5 -4 -9 -2 -9 3 0 5 -11 8 -25 7 -16 -2 -26 3 -30 16 -5
13 -9 1453 -5 1717 0 35 23 52 64 46 12 -1 39 -5 61 -8z"/>
<path d="M4110 7708 c-19 -5 -41 -15 -49 -21 -12 -9 -13 -9 -7 0 5 9 2 11 -8
7 -9 -3 -16 -10 -16 -15 0 -5 -3 -8 -7 -7 -5 1 -26 -7 -48 -17 -22 -10 -43
-17 -47 -17 -5 1 -7 -3 -5 -9 1 -6 -7 -16 -18 -22 -11 -7 -28 -21 -38 -32 -63
-69 -77 -86 -77 -95 0 -5 -4 -10 -10 -10 -5 0 -10 -7 -10 -15 0 -8 -5 -15 -10
-15 -6 0 -9 -3 -8 -7 1 -5 -8 -34 -20 -66 -12 -32 -24 -86 -26 -121 -3 -34 -6
-67 -7 -72 -1 -5 0 -11 1 -14 1 -3 3 -27 5 -55 2 -27 4 -50 5 -50 1 0 3 -10 6
-23 2 -13 11 -36 19 -53 9 -16 13 -29 9 -29 -4 0 -1 -6 5 -13 6 -8 8 -17 4
-20 -3 -4 -1 -7 5 -7 6 0 16 -16 22 -35 6 -19 16 -35 21 -35 6 0 8 -3 5 -8 -2
-4 3 -23 11 -42 9 -19 15 -38 15 -42 -1 -5 3 -8 9 -8 5 0 7 -5 4 -10 -3 -6 0
-13 8 -16 7 -2 14 -10 15 -17 2 -28 9 -49 18 -55 5 -4 10 -14 12 -23 1 -9 13
-38 27 -65 14 -27 25 -55 25 -61 0 -7 5 -13 10 -13 6 0 10 -7 10 -15 0 -8 9
-30 20 -50 11 -20 20 -40 20 -46 0 -5 8 -22 17 -36 10 -15 18 -31 18 -37 0 -6
15 -41 33 -79 18 -37 32 -72 32 -77 0 -6 4 -10 10 -10 5 0 9 -3 8 -7 -1 -5 5
-21 12 -38 7 -16 13 -33 12 -37 -1 -5 2 -8 6 -8 4 0 14 -17 21 -37 8 -21 30
-71 50 -113 19 -41 36 -77 36 -80 1 -3 10 -25 22 -50 41 -90 48 -116 47 -200
0 -68 -5 -95 -24 -135 -13 -27 -28 -51 -32 -53 -4 -2 -8 -9 -8 -15 0 -7 -15
-26 -34 -44 -19 -17 -33 -33 -30 -36 3 -2 -9 -10 -26 -17 -16 -7 -30 -17 -30
-22 0 -5 -4 -7 -9 -3 -5 3 -17 -2 -25 -11 -9 -8 -16 -13 -16 -10 0 3 -12 1
-27 -5 -17 -7 -114 -12 -234 -13 -164 -2 -210 -5 -221 -17 -19 -19 -19 -189 0
-211 9 -11 30 -16 66 -16 29 1 58 -2 64 -6 6 -3 14 -2 17 4 5 8 11 7 21 -1 8
-6 14 -8 14 -3 0 5 64 9 142 9 108 -1 153 3 190 17 27 9 51 17 53 17 17 2 82
35 98 49 11 9 22 17 26 16 31 -2 202 196 213 247 2 8 7 17 11 20 5 3 9 12 10
20 2 8 6 20 10 27 5 6 6 12 3 12 -2 0 1 21 8 48 8 28 11 90 9 157 -4 130 -4
135 -13 135 -4 0 -7 6 -8 13 -3 37 -8 53 -20 65 -7 8 -10 18 -7 23 4 5 2 9 -3
9 -8 0 -23 35 -19 43 1 1 -8 18 -21 38 -12 20 -22 44 -22 53 0 9 -5 16 -10 16
-6 0 -9 3 -8 8 4 13 -13 52 -23 52 -5 0 -8 3 -8 8 1 4 0 10 -1 15 -1 4 -3 10
-4 15 -1 4 -7 16 -13 27 -6 11 -12 23 -13 27 -1 4 -4 17 -7 28 -3 11 -10 20
-15 20 -5 0 -6 5 -3 10 3 6 1 10 -5 10 -6 0 -9 4 -5 9 3 5 1 12 -5 16 -5 3
-10 15 -10 26 0 10 -4 19 -10 19 -5 0 -10 9 -10 20 0 11 -4 20 -10 20 -5 0
-10 9 -10 19 0 11 -4 23 -10 26 -5 3 -10 15 -10 26 0 10 -4 19 -10 19 -5 0
-10 8 -10 18 0 10 -5 23 -11 29 -6 6 -11 17 -13 24 -1 8 -14 38 -29 67 -15 28
-25 52 -22 52 2 0 -6 19 -18 43 -12 23 -28 59 -36 80 -8 20 -18 37 -21 37 -4
0 -7 6 -7 13 0 6 -15 44 -33 82 -30 66 -58 127 -83 185 -5 14 -10 28 -9 33 1
4 -2 7 -7 7 -9 0 -27 96 -22 115 2 6 4 27 7 47 3 39 36 112 54 123 6 4 7 12 4
18 -4 7 -4 9 0 5 5 -4 18 3 30 16 65 68 123 85 300 88 91 1 143 6 155 15 16
10 18 26 16 100 -1 48 -2 95 -3 105 -2 14 -22 16 -179 16 -98 0 -194 -5 -213
-10z"/>
<path d="M4638 4816 c-13 -7 -43 -18 -68 -25 -25 -7 -55 -24 -67 -37 -12 -13
-27 -24 -33 -24 -6 0 -9 -4 -5 -9 3 -5 -5 -13 -17 -17 -13 -4 -29 -15 -36 -25
-7 -11 -19 -19 -26 -19 -8 0 -16 -7 -20 -15 -3 -8 -9 -14 -13 -13 -14 5 -173
-165 -173 -184 0 -10 -3 -18 -8 -18 -11 0 -3 -111 9 -126 6 -8 8 -14 5 -14 -4
0 -2 -6 3 -12 52 -64 64 -83 68 -116 5 -37 4 -37 -66 -79 -39 -23 -82 -45 -96
-49 -14 -3 -25 -10 -25 -15 0 -5 -8 -9 -19 -9 -10 0 -24 -7 -31 -15 -7 -8 -22
-15 -34 -15 -12 0 -32 -9 -44 -20 -12 -11 -28 -20 -36 -20 -8 0 -18 -5 -21
-10 -4 -6 -11 -8 -16 -5 -5 4 -9 1 -9 -4 0 -6 -6 -11 -13 -11 -17 0 -53 -39
-61 -65 -11 -38 98 -78 154 -55 14 5 36 12 50 14 56 11 73 16 84 25 6 5 14 10
19 10 4 0 24 8 45 17 20 9 44 17 52 19 8 2 16 4 18 5 1 2 5 3 10 4 4 1 17 7
28 14 12 6 24 8 28 5 3 -3 6 -1 6 5 0 7 3 11 8 11 4 -1 9 -1 12 1 3 1 15 3 27
6 13 2 40 13 60 24 21 11 52 23 70 26 18 3 33 10 33 16 0 5 5 6 12 2 7 -4 8
-3 4 5 -4 6 -12 9 -17 6 -5 -4 -12 1 -15 9 -3 9 -9 14 -13 12 -11 -7 -28 19
-26 40 1 11 11 30 23 42 12 12 23 25 23 30 7 47 7 62 -3 56 -7 -4 -8 -2 -4 5
7 10 -15 41 -29 41 -15 0 -83 68 -99 100 -7 14 -11 35 -11 47 3 32 26 83 38
83 6 0 8 3 4 6 -6 6 15 32 29 37 4 1 22 17 41 35 19 18 39 30 44 27 5 -4 9 0
9 7 0 13 77 55 92 51 4 -2 8 1 8 5 0 5 11 14 24 20 22 10 59 10 144 -1 24 -4
35 0 43 14 5 11 6 19 2 19 -4 0 -2 5 4 11 16 16 0 61 -32 94 -22 21 -39 28
-76 30 -27 1 -59 -3 -71 -9z"/>
<path d="M10018 4773 c-16 -3 -28 -8 -28 -12 0 -4 -12 -13 -27 -20 -16 -7 -28
-12 -28 -10 0 1 -25 -22 -56 -52 -30 -30 -55 -58 -55 -64 1 -5 -4 -9 -11 -8
-6 2 -15 -6 -18 -17 -4 -11 -11 -18 -16 -15 -5 4 -9 1 -9 -4 0 -10 -26 -44
-62 -83 -10 -10 -15 -18 -11 -18 3 0 -4 -9 -17 -20 -13 -11 -20 -20 -15 -20 4
0 3 -6 -3 -12 -5 -7 -12 -37 -15 -67 -3 -29 -10 -58 -16 -64 -6 -6 -48 -12
-94 -14 -45 -2 -107 -4 -137 -6 -30 -2 -65 0 -78 5 -15 5 -21 4 -17 -2 4 -6
-4 -6 -21 0 -15 6 -50 10 -78 9 -28 0 -80 6 -115 14 -36 9 -68 14 -73 11 -4
-3 -8 0 -8 5 0 6 -9 11 -19 11 -11 0 -21 4 -23 9 -1 5 -10 11 -18 13 -23 5
-47 50 -45 83 2 32 31 85 47 85 5 0 7 3 5 8 -5 7 18 33 28 32 3 0 22 7 42 15
66 28 128 30 175 5 24 -12 51 -31 61 -41 10 -10 24 -19 32 -19 8 0 15 -4 15
-8 0 -7 25 -8 70 -4 25 3 40 56 24 86 -7 14 -10 26 -6 26 15 1 -92 48 -146 65
-31 10 -61 21 -67 25 -16 11 -152 19 -170 10 -5 -2 -17 -5 -25 -5 -25 -1 -64
-17 -82 -33 -10 -8 -18 -11 -18 -7 0 5 -7 0 -15 -11 -8 -10 -15 -15 -15 -10 0
15 -69 -76 -90 -119 -18 -37 -26 -108 -17 -145 9 -38 19 -60 28 -60 5 0 8 -3
8 -7 -3 -20 2 -33 14 -33 7 0 17 -8 24 -18 9 -16 109 -73 136 -78 4 -1 9 -3
12 -4 3 -1 10 -4 15 -5 6 -1 11 -3 13 -4 1 -2 11 -4 22 -6 11 -2 29 -6 40 -8
11 -2 27 -7 35 -10 35 -13 103 -19 233 -20 75 -1 137 -4 137 -7 0 -4 -21 -28
-46 -54 -45 -47 -225 -152 -238 -139 -3 4 -6 1 -6 -5 0 -6 -21 -21 -47 -33
-27 -12 -51 -26 -54 -31 -3 -5 -8 -9 -10 -8 -6 2 -37 -10 -89 -33 -25 -12 -51
-20 -59 -18 -7 1 -10 -2 -7 -7 3 -6 -5 -13 -19 -16 -14 -4 -25 -11 -25 -16 0
-5 -9 -7 -20 -5 -11 2 -18 0 -15 -5 3 -4 -19 -16 -47 -25 -29 -10 -58 -22 -64
-26 -6 -5 -14 -6 -17 -2 -4 3 -7 1 -7 -6 0 -7 -4 -9 -10 -6 -5 3 -10 1 -10 -6
0 -7 -3 -10 -6 -6 -4 3 -21 0 -39 -8 -19 -7 -36 -11 -39 -7 -3 3 -6 0 -6 -7 0
-7 -4 -10 -9 -6 -5 3 -12 1 -16 -5 -3 -5 -16 -10 -29 -10 -12 0 -26 -3 -30 -7
-3 -4 -12 -8 -19 -9 -7 -1 -32 -7 -57 -12 -45 -11 -201 -9 -219 2 -9 6 -85 18
-111 18 -8 0 -22 2 -30 5 -8 4 -22 7 -30 8 -8 1 -28 7 -43 13 -16 7 -37 12
-48 12 -10 0 -19 3 -19 8 0 4 -21 8 -47 10 -25 1 -51 6 -57 10 -6 5 -27 9 -46
11 -19 2 -39 6 -44 9 -6 3 -24 7 -40 8 -17 1 -43 7 -58 13 -16 6 -28 8 -28 5
0 -4 -7 -1 -15 6 -8 7 -15 10 -15 7 0 -3 -15 -1 -32 4 -61 19 -73 21 -95 23
-13 0 -23 4 -23 8 0 3 -9 4 -20 1 -12 -3 -20 0 -20 8 0 7 -2 10 -6 7 -4 -5
-22 -2 -94 17 -8 2 -16 4 -17 5 -2 2 -11 3 -20 5 -24 2 -69 14 -128 33 -48 15
-70 19 -125 25 -14 1 -27 4 -30 7 -5 5 -114 36 -160 46 -14 3 -52 12 -85 21
-33 8 -67 17 -75 18 -8 2 -15 4 -15 5 0 1 -7 3 -15 5 -8 2 -36 13 -62 25 -36
15 -74 22 -150 25 -89 4 -143 10 -143 15 0 1 -16 3 -35 4 -57 4 -83 15 -70 31
8 9 25 12 58 8 97 -13 231 -4 256 16 6 5 19 7 29 6 9 -2 17 2 17 8 0 5 3 8 6
4 4 -3 19 0 35 9 16 8 29 12 29 9 0 -3 10 0 23 7 12 7 25 11 30 10 4 -1 7 3 7
10 0 6 3 8 6 5 4 -3 14 -3 23 2 9 5 28 11 42 15 33 7 41 -8 45 -79 1 -27 7
-51 13 -53 6 -2 9 -7 6 -12 -6 -10 58 -41 93 -44 15 -2 44 3 66 10 21 8 42 11
47 8 5 -3 16 2 25 10 14 14 38 21 47 14 2 -2 11 5 21 15 10 9 21 15 26 12 4
-3 11 2 14 11 3 8 10 13 15 10 5 -3 12 1 15 10 4 9 9 14 12 11 4 -3 18 5 32
18 14 13 29 22 34 19 4 -3 8 0 8 5 0 6 3 11 8 10 16 -2 52 14 52 24 0 6 3 8 6
4 7 -7 162 60 187 81 9 8 17 12 17 9 0 -4 15 2 34 13 32 17 35 17 41 2 4 -11
-3 -26 -23 -43 -32 -28 -42 -48 -49 -96 -5 -34 20 -83 42 -83 7 0 15 -5 17
-12 7 -20 108 -14 157 10 24 12 48 19 52 16 5 -3 9 -1 9 4 0 9 44 31 71 36 8
1 44 16 82 34 37 18 69 32 72 32 2 0 30 12 62 26 32 15 58 25 58 24 0 -2 11 3
25 10 14 8 28 13 33 12 4 -1 7 3 7 10 0 6 3 9 6 5 8 -8 64 13 64 24 0 17 19 9
25 -11 4 -12 -3 -36 -18 -63 -32 -57 -30 -106 8 -141 15 -14 31 -26 34 -27 28
-3 56 -11 65 -17 11 -8 50 -7 101 2 17 3 38 7 47 9 10 2 21 6 24 10 4 4 16 7
26 7 10 0 18 5 18 11 0 5 5 7 10 4 6 -3 10 -1 10 5 0 6 5 8 10 5 6 -3 10 1 10
9 0 9 3 15 8 15 19 -3 28 3 29 20 3 35 -22 44 -95 37 -85 -9 -95 -10 -109 -19
-6 -4 -18 4 -27 18 -15 23 -15 25 -1 25 9 0 13 5 10 10 -3 6 2 22 12 38 11 15
30 48 43 75 13 26 26 47 30 47 10 0 11 93 1 109 -5 8 -16 11 -25 8 -8 -3 -18
-2 -20 2 -5 7 -34 4 -126 -16 -27 -5 -57 -11 -94 -17 -13 -2 -32 -9 -43 -15
-11 -5 -23 -7 -27 -4 -3 3 -6 2 -6 -4 0 -6 -17 -14 -37 -18 -20 -4 -54 -15
-75 -26 -21 -11 -38 -16 -38 -12 0 4 -7 -2 -15 -13 -8 -10 -15 -16 -15 -11 0
4 -18 -2 -40 -13 -23 -11 -46 -18 -52 -14 -7 4 -8 3 -4 -4 5 -8 -2 -12 -19
-12 -23 0 -25 3 -19 28 4 15 10 32 14 37 18 22 18 75 1 96 -18 23 -70 30 -110
16 -14 -4 -57 -10 -95 -13 -39 -3 -74 -10 -78 -17 -4 -7 -8 -8 -8 -4 0 9 -83
-34 -88 -46 -2 -4 -8 -5 -13 -1 -5 3 -9 0 -9 -6 0 -6 -4 -8 -10 -5 -5 3 -10 2
-10 -4 0 -9 -26 -21 -55 -27 -29 -5 -115 -48 -115 -57 0 -6 -3 -7 -7 -4 -3 4
-13 1 -22 -7 -9 -8 -19 -15 -24 -15 -9 0 -40 -22 -100 -68 -68 -53 -108 -70
-157 -69 -35 1 -45 5 -48 19 -5 24 18 78 29 71 5 -3 9 3 9 14 0 10 9 27 19 36
40 36 69 127 51 161 -2 6 -5 13 -5 16 0 3 -7 13 -16 22 -14 13 -20 14 -43 2
-14 -8 -26 -11 -26 -8 0 3 -9 -2 -20 -12 -11 -10 -20 -15 -20 -12 0 7 -63 -32
-90 -55 -8 -7 -17 -12 -20 -11 -9 2 -115 -50 -122 -61 -5 -7 -8 -7 -8 -1 0 6
-3 6 -8 -1 -8 -12 -84 -49 -94 -46 -5 1 -8 -2 -8 -7 0 -5 -17 -12 -37 -16 -54
-12 -55 -12 -88 -26 -35 -14 -134 -19 -141 -7 -3 4 -13 8 -23 8 -25 0 -51 22
-56 48 -8 42 38 124 96 173 51 43 125 86 142 81 4 -1 7 2 7 7 0 9 35 7 68 -3
11 -4 23 -19 27 -34 9 -37 23 -52 49 -52 66 0 90 109 38 168 -16 18 -32 32
-36 32 -4 0 -14 7 -23 15 -8 8 -19 13 -24 10 -5 -4 -9 -2 -9 3 0 14 -48 25
-95 24 -55 -2 -65 -4 -65 -14 0 -4 -7 -8 -15 -8 -8 0 -24 -9 -35 -20 -11 -11
-24 -20 -30 -20 -5 0 -10 -5 -10 -10 0 -6 -11 -16 -25 -22 -13 -6 -27 -19 -31
-30 -3 -10 -9 -16 -14 -13 -5 3 -12 -4 -15 -16 -4 -11 -9 -18 -12 -15 -3 3
-24 -19 -46 -49 -22 -30 -44 -55 -49 -55 -4 0 -8 -7 -8 -15 0 -8 -4 -15 -10
-15 -5 0 -20 -21 -33 -47 -22 -46 -24 -64 -13 -144 6 -47 -4 -60 -47 -63 -42
-4 -60 12 -63 53 -2 23 30 107 45 121 10 9 31 44 37 63 4 9 10 17 13 17 8 0
11 18 12 60 1 46 -5 70 -18 70 -7 0 -13 4 -13 9 0 12 -66 7 -82 -6 -7 -6 -17
-11 -21 -11 -9 0 -159 -74 -167 -82 -3 -3 -25 -16 -50 -28 -25 -13 -71 -37
-102 -54 -32 -17 -58 -34 -58 -40 0 -5 -4 -7 -8 -4 -4 3 -47 -15 -95 -39 -48
-24 -87 -42 -87 -39 0 2 -9 -5 -20 -16 -12 -12 -25 -18 -30 -15 -6 4 -10 2
-10 -4 0 -10 -38 -27 -52 -23 -5 1 -8 -2 -8 -7 0 -4 -11 -6 -25 -4 -22 5 -23
7 -12 34 11 26 58 84 129 159 14 16 24 31 21 33 -2 3 6 13 19 23 36 30 81 106
84 141 1 18 -3 33 -8 33 -5 0 -7 4 -4 9 3 5 -1 12 -10 15 -19 7 -64 -3 -64
-14 0 -5 -9 -12 -20 -15 -11 -4 -18 -11 -15 -16 4 -5 1 -9 -4 -9 -13 0 -41
-22 -86 -67 -17 -18 -37 -33 -42 -33 -6 0 -13 -7 -17 -15 -3 -8 -10 -14 -15
-13 -5 2 -21 -10 -37 -27 -15 -16 -28 -28 -29 -25 -1 5 -57 -37 -91 -68 -8 -7
-14 -10 -14 -5 0 4 -4 3 -8 -4 -9 -15 -129 -93 -142 -93 -6 0 -10 -5 -10 -11
0 -5 -4 -8 -9 -4 -5 3 -12 1 -16 -5 -4 -6 -11 -8 -16 -4 -5 3 -16 1 -23 -5 -7
-6 -22 -9 -33 -7 -13 3 -33 -7 -54 -27 -19 -17 -37 -30 -42 -29 -4 1 -7 -3 -7
-8 0 -6 0 -12 0 -15 0 -12 -36 -41 -45 -37 -5 3 -3 -3 7 -13 11 -12 30 -17 63
-17 25 1 49 4 54 6 4 3 23 8 42 11 18 3 37 11 41 18 6 9 8 8 8 -3 0 -10 3 -11
8 -4 6 10 45 22 79 26 7 1 10 4 8 8 -2 4 11 19 30 35 19 15 32 31 29 36 -3 5
3 6 12 2 12 -4 15 -3 10 5 -4 7 -4 12 1 13 4 0 18 2 31 5 22 4 31 -10 13 -21
-14 -8 -5 -108 11 -137 21 -36 48 -72 48 -62 0 5 5 1 11 -9 6 -9 14 -15 19
-12 5 3 11 1 14 -3 7 -12 56 -2 56 11 0 6 3 8 6 4 4 -3 22 0 40 8 19 8 34 11
34 7 0 -4 4 -1 9 7 5 8 17 16 27 17 9 2 20 8 24 15 4 6 13 8 19 5 6 -4 10 -2
9 4 -2 7 6 14 16 16 10 1 22 8 26 14 4 7 10 11 14 11 21 -3 38 0 33 5 -6 6 16
21 83 56 61 31 109 66 102 73 -4 5 -2 5 5 1 6 -3 14 -2 18 4 4 6 11 8 16 5 5
-4 9 -2 9 4 0 6 14 18 32 27 29 15 32 15 41 -2 14 -24 16 -54 5 -54 -5 0 -6
-4 -3 -10 9 -14 16 -50 18 -84 2 -28 -1 -30 -68 -51 -67 -20 -122 -48 -137
-70 -4 -5 -8 -6 -8 -2 0 18 -210 -169 -210 -187 0 -5 -12 -21 -45 -60 -18 -21
-35 -55 -35 -71 0 -8 -4 -15 -9 -15 -9 0 -26 -48 -23 -63 1 -4 -4 -10 -11 -13
-8 -3 -13 -16 -11 -30 1 -13 -1 -24 -5 -24 -4 0 -7 -8 -8 -17 -1 -10 -8 -51
-16 -92 -22 -113 -14 -334 14 -367 6 -8 9 -14 5 -14 -3 0 0 -16 8 -35 8 -19
13 -35 11 -35 -3 0 6 -16 20 -35 29 -44 123 -133 147 -141 10 -3 18 -10 18
-16 0 -5 7 -8 15 -4 8 3 15 1 15 -4 0 -6 3 -9 8 -8 4 1 17 -3 29 -10 12 -7 33
-13 47 -14 15 -1 26 -5 26 -9 0 -3 6 -6 13 -6 6 0 35 -4 62 -8 62 -9 396 -10
449 -1 21 3 43 9 49 13 7 4 18 8 27 9 18 3 55 12 55 14 0 0 27 3 60 6 33 3 68
6 78 7 9 1 17 4 17 7 0 3 16 6 37 7 20 1 40 8 44 15 6 8 9 9 9 2 0 -8 26 -4
75 11 41 13 75 21 75 18 0 -3 7 1 17 8 9 8 18 13 20 11 5 -4 145 38 158 48 6
4 18 6 28 5 9 -2 17 1 17 6 0 6 5 7 10 4 6 -3 10 -2 10 4 0 5 9 8 20 6 11 -2
20 1 20 6 0 6 4 8 8 5 5 -3 22 2 38 10 16 9 30 15 31 15 14 -3 63 14 63 20 0
5 3 8 8 8 4 -1 10 0 15 1 18 6 24 8 55 15 17 4 32 12 32 17 0 6 7 8 15 4 8 -3
15 -1 15 5 0 6 4 7 10 4 5 -3 22 2 37 12 15 10 27 17 28 15 0 -2 13 1 28 7 16
6 35 11 43 11 8 0 14 6 14 13 0 8 4 7 10 -3 7 -11 10 -11 10 -2 0 7 5 10 10 7
6 -3 12 0 15 7 3 7 17 14 31 15 15 0 30 7 35 15 5 7 9 9 9 4 0 -5 6 -3 13 3 8
6 17 8 20 4 4 -3 7 0 7 7 0 7 3 11 6 7 4 -3 19 0 35 9 16 8 29 12 29 8 0 -4 7
0 16 7 17 14 36 20 71 22 12 0 19 5 17 9 -3 4 -1 8 5 8 5 0 22 5 38 12 15 6
31 12 36 13 4 2 9 4 12 5 3 1 8 3 13 5 4 1 21 7 37 14 78 33 102 40 148 44 9
1 17 5 17 9 0 4 3 7 8 6 4 -2 27 6 52 16 25 11 48 20 53 22 4 1 9 3 12 4 3 1
8 3 13 4 4 1 17 7 30 14 12 7 22 10 22 7 0 -3 10 1 23 9 12 8 25 15 30 15 4 1
23 7 42 15 40 17 105 32 120 27 12 -3 137 -13 178 -14 15 0 27 -4 27 -9 0 -4
10 -4 23 1 12 5 31 5 42 1 11 -5 29 -6 40 -4 34 7 156 11 159 5 3 -3 45 -6 95
-6 50 0 91 -2 91 -5 0 -3 43 -5 95 -5 52 0 95 -4 95 -8 0 -5 5 -5 11 -1 10 6
199 14 302 13 28 0 37 4 31 12 -5 8 -3 9 7 4 19 -13 49 -14 49 -2 0 5 8 3 17
-4 14 -12 16 -12 8 0 -6 11 -4 13 8 8 10 -3 17 -2 17 4 0 6 4 8 9 5 5 -4 16
-3 25 0 24 9 -3 32 -36 30 -15 -1 -25 1 -22 5 2 4 0 10 -6 14 -5 3 -10 3 -10
-2 0 -4 -16 -8 -35 -9 -19 0 -35 2 -35 6 0 9 -32 6 -48 -4 -6 -4 -12 -4 -12 1
0 4 -13 8 -30 9 -19 1 -27 -3 -23 -10 4 -7 2 -7 -7 1 -8 7 -22 8 -40 3 -16 -5
-30 -6 -33 -4 -2 2 -26 7 -53 10 -71 7 -78 9 -93 18 -11 7 -12 6 -6 -5 7 -11
6 -12 -6 -3 -16 12 -128 13 -146 1 -7 -5 -13 -4 -13 0 0 5 -8 9 -17 10 -51 2
-201 21 -223 28 -8 3 -33 7 -55 10 -87 13 -96 26 -37 51 20 9 42 17 47 18 6 2
21 8 35 14 56 23 85 35 90 37 3 1 19 8 35 15 17 7 32 14 35 16 18 7 46 15 54
14 5 -1 12 2 15 7 5 7 79 46 91 47 3 1 21 11 40 22 19 12 52 27 72 34 21 6 40
16 44 21 3 5 10 7 15 4 5 -4 9 -1 9 5 0 6 4 9 9 5 5 -3 12 -1 15 4 5 8 60 39
159 88 15 8 27 19 27 24 0 6 4 8 9 5 8 -6 63 31 69 46 2 5 8 6 13 2 5 -3 9 0
9 5 0 6 7 11 15 11 8 0 15 7 15 15 0 8 6 15 13 15 8 0 20 11 27 25 7 13 17 22
22 19 4 -3 8 1 8 8 0 19 50 46 75 41 11 -2 40 -6 64 -8 24 -3 46 -7 48 -9 4
-3 58 8 148 31 11 2 26 5 33 5 6 1 12 5 12 10 0 5 4 7 8 4 5 -3 21 1 35 9 15
8 31 15 35 16 11 2 24 7 57 20 17 7 33 13 38 14 4 2 8 3 10 5 1 1 16 4 32 6
27 4 31 2 33 -22 1 -15 -3 -33 -9 -40 -9 -11 -8 -14 1 -14 7 0 10 -6 7 -14 -3
-7 3 -26 14 -42 10 -16 19 -25 19 -20 0 6 7 1 15 -10 8 -10 15 -15 15 -10 0 5
6 3 14 -3 29 -24 113 -15 185 21 25 12 51 23 56 24 40 11 68 22 55 23 -8 1 3
10 25 20 22 11 36 20 31 20 -5 1 -3 8 4 16 32 39 -42 47 -145 17 -16 -5 -46
-9 -65 -8 -29 1 -36 5 -38 25 -2 13 0 26 5 30 4 3 19 26 32 51 14 25 30 50 35
57 6 7 16 18 21 25 14 18 12 125 -3 140 -6 6 -12 8 -12 4 0 -5 -7 -3 -15 4
-12 10 -15 10 -15 0 0 -8 -3 -11 -6 -7 -8 8 -64 -13 -64 -25 0 -5 -4 -7 -9 -4
-5 3 -14 -1 -21 -9 -7 -8 -19 -15 -26 -15 -8 0 -14 -5 -14 -11 0 -6 -7 -9 -15
-5 -8 3 -15 1 -15 -4 0 -5 -18 -18 -40 -29 -22 -11 -37 -14 -34 -8 3 7 -2 3
-11 -8 -9 -11 -18 -18 -21 -17 -3 2 -15 -3 -27 -12 -31 -23 -98 -56 -91 -45 3
5 -10 1 -28 -10 -46 -25 -196 -70 -220 -66 -36 7 -88 29 -88 37 0 4 -6 8 -14
8 -20 0 -14 88 9 128 11 18 23 32 27 32 4 0 8 7 8 17 0 9 3 14 6 10 3 -3 17 6
31 21 14 15 29 27 35 27 5 0 16 9 24 19 8 11 14 17 14 13 0 -4 10 -1 23 7 12
8 31 15 42 15 11 0 31 2 45 4 31 6 52 -8 71 -47 8 -16 19 -29 24 -28 6 0 15
-4 20 -8 21 -18 64 40 60 80 -1 14 -3 35 -4 48 0 13 -7 22 -17 22 -8 0 -13 4
-10 9 3 5 -1 14 -9 21 -8 7 -15 9 -15 4 0 -5 -5 -2 -10 7 -5 8 -27 21 -50 29
-22 7 -40 16 -40 19 0 7 -64 9 -102 4z m-4073 -353 c3 -6 -1 -7 -9 -4 -18 7
-21 14 -7 14 6 0 13 -4 16 -10z m168 -399 c12 -12 11 -13 -55 -16 -40 -1 -48
1 -48 16 0 14 8 17 46 14 25 -1 50 -7 57 -14z m-46 -114 c6 -4 39 -9 74 -12
78 -6 134 -13 174 -21 17 -4 41 -8 55 -10 14 -1 45 -6 70 -9 25 -4 57 -8 72
-10 14 -2 30 -5 35 -8 5 -3 27 -8 49 -11 22 -4 51 -9 64 -11 14 -3 47 -8 75
-11 27 -3 57 -10 66 -15 9 -4 19 -5 23 -2 3 3 6 2 6 -3 0 -5 10 -10 23 -11 38
-3 82 -12 109 -22 14 -5 28 -8 30 -6 2 2 37 -4 77 -15 40 -10 79 -16 87 -13 8
3 14 0 14 -6 0 -6 13 -11 29 -11 17 0 33 -5 37 -11 4 -8 8 -8 13 0 5 7 14 7
31 -2 14 -7 35 -12 48 -11 12 1 22 -3 22 -8 0 -6 6 -8 14 -5 8 3 17 3 20 -1 4
-3 19 -8 34 -9 15 -2 63 -13 107 -24 44 -12 96 -23 115 -26 19 -2 58 -11 85
-20 28 -8 64 -17 80 -20 43 -8 60 -11 60 -13 0 -1 13 -4 65 -14 14 -2 26 -5
28 -5 1 -1 3 -1 5 0 1 0 25 -8 52 -19 28 -11 54 -20 60 -20 20 -1 15 -19 -10
-32 -14 -7 -25 -17 -25 -22 0 -5 -5 -6 -10 -3 -6 4 -18 1 -26 -6 -9 -7 -23
-14 -32 -15 -8 -2 -18 -8 -22 -14 -4 -7 -10 -11 -14 -11 -3 1 -19 -5 -34 -12
-15 -8 -56 -24 -92 -37 -36 -13 -68 -29 -72 -34 -4 -6 -8 -7 -8 -3 0 5 -6 5
-12 0 -7 -4 -17 -8 -23 -9 -28 -5 -41 -10 -53 -21 -7 -7 -20 -14 -28 -14 -23
-2 -28 -4 -44 -14 -8 -5 -24 -11 -35 -12 -10 -2 -23 -9 -27 -16 -4 -6 -8 -8
-8 -3 0 5 -6 3 -13 -3 -8 -6 -17 -8 -20 -4 -4 3 -7 1 -7 -6 0 -7 -5 -9 -10 -6
-6 4 -16 2 -23 -3 -7 -5 -27 -13 -44 -17 -18 -3 -33 -11 -33 -16 0 -6 -5 -7
-10 -4 -6 4 -17 1 -25 -5 -8 -7 -15 -9 -15 -5 0 4 -7 2 -15 -5 -8 -7 -15 -9
-15 -5 0 4 -6 2 -13 -4 -8 -6 -22 -12 -33 -14 -10 -2 -32 -10 -49 -16 -16 -7
-38 -14 -49 -17 -10 -2 -24 -8 -30 -14 -7 -5 -16 -7 -19 -3 -4 3 -7 1 -7 -5 0
-7 -3 -11 -7 -10 -7 1 -42 -8 -103 -27 -3 -1 -12 -5 -20 -8 -53 -22 -78 -31
-98 -33 -13 -2 -30 -8 -38 -15 -8 -6 -14 -9 -14 -5 0 3 -16 -1 -36 -9 -20 -8
-40 -12 -45 -9 -5 3 -9 1 -9 -3 0 -5 -15 -8 -32 -8 -18 1 -37 -1 -43 -4 -10
-6 -27 -10 -60 -15 -11 -2 -20 -4 -20 -6 0 -1 -16 -4 -35 -7 -19 -2 -40 -9
-46 -14 -12 -10 -46 -17 -87 -18 -16 -1 -26 -5 -23 -9 3 -5 -5 -8 -17 -7 -12
1 -27 -1 -32 -6 -6 -4 -33 -11 -60 -14 -28 -4 -61 -9 -75 -11 -14 -3 -41 -6
-60 -9 -19 -2 -35 -4 -35 -5 0 -3 -53 -9 -128 -14 -42 -3 -81 -7 -86 -11 -5
-3 -13 -1 -16 5 -4 7 -11 7 -18 2 -7 -5 -20 -8 -31 -6 -10 1 -54 4 -97 6 -43
2 -79 6 -79 10 0 5 -3 7 -7 6 -16 -3 -91 30 -115 51 -10 8 -18 11 -18 7 0 -4
-13 7 -30 24 -16 17 -30 35 -30 40 0 6 -5 10 -10 10 -6 0 -14 8 -17 18 -4 9
-13 23 -20 30 -7 8 -11 18 -8 23 4 5 2 9 -3 9 -5 0 -15 19 -22 43 -8 23 -17
47 -20 52 -11 15 -20 270 -11 290 5 11 10 39 14 75 1 14 6 28 10 31 5 3 10 15
12 25 2 10 4 20 4 22 1 1 2 5 3 10 1 4 9 15 18 25 10 10 23 36 30 58 8 23 26
54 41 70 15 16 25 29 22 29 -30 0 160 100 267 140 19 7 39 17 44 21 11 10 277
6 293 -4z"/>
</g>
</svg>
